<svg width="20" height="20" viewBox="0 0 20 20" fill="none" xmlns="http://www.w3.org/2000/svg">
<g clip-path="url(#clip0_2_1953)">
<path d="M14.572 16.0023C10.575 19.1858 4.98767 18.3049 2.02818 14.6536C-0.828247 11.1285 -0.649604 6.04314 2.44918 2.82458C5.65103 -0.50074 10.6849 -0.944658 14.334 1.78316C15.6413 2.76027 16.6176 4.00337 17.2535 5.50807C17.8931 7.02151 18.0874 8.59614 17.8656 10.2201C17.6445 11.8365 16.9993 13.2769 15.9493 14.6212C16.0342 14.6767 16.1248 14.7167 16.1898 14.7816C17.3441 15.9305 18.494 17.0836 19.6483 18.2325C19.9219 18.5047 20.0581 18.8218 19.9769 19.204C19.8157 19.9644 18.91 20.2579 18.3291 19.7359C18.0568 19.4918 17.8063 19.2227 17.5477 18.9642C16.5995 18.0171 15.652 17.0693 14.7038 16.1221C14.6644 16.0847 14.6232 16.0497 14.572 16.0023ZM15.9599 8.98636C15.9699 5.12659 12.8524 2.00605 8.98217 2.00043C5.12259 1.99481 2.00757 5.09037 1.9907 8.94765C1.97384 12.8168 5.08511 15.9461 8.96718 15.9642C12.8111 15.9823 15.9499 12.8499 15.9599 8.98636Z" fill="#3D3D3D"/>
</g>
<defs>
<clipPath id="clip0_2_1953">
<rect width="20" height="20" fill="white"/>
</clipPath>
</defs>
</svg>
