<svg width="20" height="20" viewBox="0 0 20 20" fill="none" xmlns="http://www.w3.org/2000/svg">
<g clip-path="url(#clip0_2_2044)">
<path d="M4.72656 5.0625C4.72656 5.60152 4.8086 6.11715 4.94922 6.59765L1.42188 10.125C0.542969 8.64844 0 6.91402 0 5.0625C0 3.2109 0.542969 1.47656 1.42188 0L4.25285 0.487226L4.94922 3.52734C4.8086 4.00777 4.72656 4.5234 4.72656 5.0625Z" fill="#FFDA2D"/>
<path d="M19.125 2.79293C19.1367 2.95699 19.0664 3.10937 18.9609 3.22652L16.4531 5.72262C16.254 5.93355 15.9258 5.95699 15.6915 5.78121C14.7656 5.08984 13.6757 4.72656 12.5273 4.72656C10.1601 4.72656 8.14453 6.30855 7.47656 8.46484L3.94922 4.9375C5.68356 2.00781 8.88281 0 12.5273 0C14.8594 0 17.1328 0.859375 18.9141 2.35934C19.043 2.46484 19.1133 2.62887 19.125 2.79293Z" fill="#FF641A"/>
<path d="M28.7122 2.34375C28.7122 5.39058 27.3021 8.12109 25.1458 9.94921L21.806 6.60937C22.4856 6.11714 23.0599 5.46089 23.4349 4.6875H18.7122C18.3841 4.6875 18.1263 4.42964 18.1263 4.10156V0.585937C18.1263 0.257773 18.3841 0 18.7122 0H27.9622C28.2435 0 28.4896 0.199179 28.5364 0.480429C28.6536 1.08984 28.7122 1.72262 28.7122 2.34375Z" fill="#4086F4"/>
<path d="M15.0117 16.1953C13.2773 17.6602 11.0274 18.5898 8.57813 18.5898C4.9336 18.5898 1.73434 16.582 0 13.6523L0.649297 10.6593L3.52734 10.125C4.19531 12.2812 6.2109 13.8633 8.57813 13.8633C9.72653 13.8633 10.793 13.5 11.6719 12.8555L14.4375 13.2773L15.0117 16.1953Z" fill="#59C36A"/>
<path d="M20.4453 13.4648L19.8711 10.5469L17.1055 10.125C16.2266 10.7695 15.1601 11.1328 14.0117 11.1328V15.8594C16.461 15.8594 18.7109 14.9297 20.4453 13.4648Z" fill="#00A66C"/>
<path d="M14.7227 5.01699C14.3477 5.33132 13.7734 5.59805 13.0938 5.79811L16.4336 7.15555C18.5899 6.41253 20 5.30276 20 4.06439C20 3.81194 19.9414 3.55476 19.8242 3.30707C19.7773 3.19276 19.5312 3.1118 19.25 3.1118H10V5.01699H14.7227Z" fill="#4175DF"/>
<path d="M13.1641 2.34971C13.3984 2.42117 13.7265 2.41163 13.9257 2.3259L16.4336 1.31139C16.5391 1.26377 16.6094 1.20185 16.5976 1.13516C16.5859 1.06846 16.5156 1.00181 16.3867 0.958928C14.6055 0.349284 12.332 0 10 0V1.92106C11.1484 1.92106 12.2382 2.06871 13.1641 2.34971Z" fill="#F03800"/>
</g>
<defs>
<clipPath id="clip0_2_2044">
<rect width="20" height="20" fill="white"/>
</clipPath>
</defs>
</svg>
