<svg width="24" height="25" viewBox="0 0 24 25" fill="none" xmlns="http://www.w3.org/2000/svg">
<mask id="mask0_1_13" style="mask-type:alpha" maskUnits="userSpaceOnUse" x="0" y="0" width="24" height="25">
<rect y="0.5" width="24" height="24" fill="#D9D9D9"/>
</mask>
<g mask="url(#mask0_1_13)">
<path d="M12 21.5L10.55 20.2C8.86667 18.6833 7.475 17.375 6.375 16.275C5.275 15.175 4.4 14.1875 3.75 13.3125C3.1 12.4375 2.64583 11.6333 2.3875 10.9C2.12917 10.1667 2 9.41667 2 8.65C2 7.08333 2.525 5.775 3.575 4.725C4.625 3.675 5.93333 3.15 7.5 3.15C8.36667 3.15 9.19167 3.33333 9.975 3.7C10.7583 4.06667 11.4333 4.58333 12 5.25C12.5667 4.58333 13.2417 4.06667 14.025 3.7C14.8083 3.33333 15.6333 3.15 16.5 3.15C18.0667 3.15 19.375 3.675 20.425 4.725C21.475 5.775 22 7.08333 22 8.65C22 9.41667 21.8708 10.1667 21.6125 10.9C21.3542 11.6333 20.9 12.4375 20.25 13.3125C19.6 14.1875 18.725 15.175 17.625 16.275C16.525 17.375 15.1333 18.6833 13.45 20.2L12 21.5ZM12 18.8C13.6 17.3667 14.9167 16.1375 15.95 15.1125C16.9833 14.0875 17.8 13.1958 18.4 12.4375C19 11.6792 19.4167 11.0042 19.65 10.4125C19.8833 9.82083 20 9.23333 20 8.65C20 7.65 19.6667 6.81667 19 6.15C18.3333 5.48333 17.5 5.15 16.5 5.15C15.7167 5.15 14.9917 5.37083 14.325 5.8125C13.6583 6.25417 13.2 6.81667 12.95 7.5H11.05C10.8 6.81667 10.3417 6.25417 9.675 5.8125C9.00833 5.37083 8.28333 5.15 7.5 5.15C6.5 5.15 5.66667 5.48333 5 6.15C4.33333 6.81667 4 7.65 4 8.65C4 9.23333 4.11667 9.82083 4.35 10.4125C4.58333 11.0042 5 11.6792 5.6 12.4375C6.2 13.1958 7.01667 14.0875 8.05 15.1125C9.08333 16.1375 10.4 17.3667 12 18.8Z" fill="#1C1B1F"/>
</g>
</svg>
